<svg xmlns="http://www.w3.org/2000/svg" xmlns:xlink="http://www.w3.org/1999/xlink" width="32" height="31.95" viewBox="0 0 32 31.95">
  <defs>
    <clipPath id="clip-path">
      <rect id="Rectángulo_2848" data-name="Rectángulo 2848" width="32" height="31.95" fill="none"/>
    </clipPath>
  </defs>
  <g id="Abrir_porductos_32" data-name="Abrir porductos 32" transform="translate(16 15.975)">
    <g id="Grupo_9218" data-name="Grupo 9218" transform="translate(-16 -15.975)" clip-path="url(#clip-path)">
      <path id="Trazado_5281" data-name="Trazado 5281" d="M16,4.2c.8,0,3.1,1.1,5,2.2h.8a.7.7,0,0,0,.2-.7.7.7,0,0,1,0-.5h1.5c.3,0,1,0,1.1.3a10.9,10.9,0,0,0-.5,3,.7.7,0,0,0,.3.6l2.6,2,.7.8a1.5,1.5,0,0,1,.3,1.5c-.2.4-1,.6-1.9.6H24.9l-.4.2a.7.7,0,0,0-.2.5,7.7,7.7,0,0,0,.5,2.5A7.9,7.9,0,0,0,26,18.9a3,3,0,0,1,.5,3.6,4.4,4.4,0,0,1-4,3h-.4a7.5,7.5,0,0,1-2.4-.4h-.5a8.1,8.1,0,0,1-3.3.7h-.2a8.5,8.5,0,0,1-3.3-.7H12a7.5,7.5,0,0,1-2.4.4H9.2a4.4,4.4,0,0,1-4-3.1,3,3,0,0,1,.5-3.5,7.6,7.6,0,0,0,1.8-4.6.7.7,0,0,0-.2-.5l-.4-.2H5.5c-1,0-1.7-.2-1.9-.6a1.6,1.6,0,0,1,.3-1.5l.7-.7,2.7-2,3.2-2.2C13,5.1,15.2,4.2,16,4.2h0m0-1h0c-1.3,0-4.6,1.7-6,2.4H9.9L6.7,7.9,4,10l-.9.9a2.6,2.6,0,0,0-.4,2.5c.2.6.9,1.3,2.8,1.3h1A6.6,6.6,0,0,1,5,18.2a4,4,0,0,0-.7,4.6,5.4,5.4,0,0,0,4.9,3.7h.4a8.5,8.5,0,0,0,2.6-.4,9.5,9.5,0,0,0,3.6.7H16a9.1,9.1,0,0,0,3.6-.7,8.5,8.5,0,0,0,2.6.4h.4a5.4,5.4,0,0,0,4.9-3.6,4,4,0,0,0-.6-4.6,6.9,6.9,0,0,1-1.1-1.8,6.6,6.6,0,0,1-.4-1.8h1c1.9,0,2.6-.7,2.8-1.3a2.6,2.6,0,0,0-.4-2.5l-.9-.9L25.2,8.1a9.9,9.9,0,0,1,.4-2.5,1,1,0,0,0,0-.6c-.3-1-1.5-1-2-1h-.9a1.7,1.7,0,0,0-1.4.5h-.1a1.6,1.6,0,0,0-.2.7c-1.2-.7-3.8-2-4.9-2" fill="#dd141d"/>
      <path id="Trazado_5282" data-name="Trazado 5282" d="M24.4,26.1a4.8,4.8,0,1,1,4.8-4.8,4.8,4.8,0,0,1-4.8,4.8" fill="#dd141d"/>
      <path id="Trazado_5283" data-name="Trazado 5283" d="M24.4,16.9a4.3,4.3,0,1,1-4.3,4.3,4.3,4.3,0,0,1,4.3-4.3m0-1a5.3,5.3,0,1,0,5.3,5.3,5.3,5.3,0,0,0-5.3-5.3" fill="#dd141d"/>
      <line id="Línea_369" data-name="Línea 369" y2="4.9" transform="translate(24.4 18.8)" fill="none" stroke="#fff" stroke-linecap="round" stroke-linejoin="round" stroke-width="0.75"/>
      <line id="Línea_370" data-name="Línea 370" x1="4.9" transform="translate(22 21.2)" fill="none" stroke="#fff" stroke-linecap="round" stroke-linejoin="round" stroke-width="0.75"/>
    </g>
  </g>
</svg>
