<svg id="Grupo_17842" data-name="Grupo 17842" xmlns="http://www.w3.org/2000/svg" width="72.103" height="33.809" viewBox="0 0 72.103 33.809">
  <g id="Grupo_9272" data-name="Grupo 9272" transform="translate(37.152 12.406)">
    <path id="Trazado_5293" data-name="Trazado 5293" d="M242.4,116.269c0-.829-.027-1.5-.053-2.112H243.4l.053,1.11h.027a2.543,2.543,0,0,1,2.3-1.256c1.564,0,2.74,1.323,2.74,3.288,0,2.326-1.417,3.475-2.941,3.475a2.268,2.268,0,0,1-1.991-1.016h-.027v3.515H242.4Zm1.163,1.724a2.65,2.65,0,0,0,.053.481,1.815,1.815,0,0,0,1.764,1.377c1.243,0,1.965-1.016,1.965-2.5,0-1.3-.681-2.406-1.924-2.406a1.877,1.877,0,0,0-1.778,1.457,1.91,1.91,0,0,0-.08.481Z" transform="translate(-242.348 -111.136)" fill="#DD141D"/>
    <path id="Trazado_5294" data-name="Trazado 5294" d="M272.419,102.726H273.6v9.49h-1.176Z" transform="translate(-264.761 -102.726)" fill="#DD141D"/>
    <path id="Trazado_5295" data-name="Trazado 5295" d="M286.9,120.626l-.093-.815h-.04a2.409,2.409,0,0,1-1.978.962,1.843,1.843,0,0,1-1.978-1.858c0-1.564,1.39-2.419,3.889-2.406v-.134a1.334,1.334,0,0,0-1.47-1.5,3.222,3.222,0,0,0-1.684.481l-.267-.775a4.013,4.013,0,0,1,2.125-.575c1.978,0,2.459,1.35,2.459,2.646v2.419a9.1,9.1,0,0,0,.107,1.55Zm-.174-3.3c-1.283-.027-2.74.2-2.74,1.457A1.041,1.041,0,0,0,285.1,119.9a1.609,1.609,0,0,0,1.564-1.083,1.223,1.223,0,0,0,.067-.374Z" transform="translate(-272.506 -111.136)" fill="#DD141D"/>
    <path id="Trazado_5296" data-name="Trazado 5296" d="M309.156,107.292v1.858h1.684v.9h-1.684v3.488c0,.8.227,1.256.882,1.256a2.618,2.618,0,0,0,.681-.08l.054.882a2.884,2.884,0,0,1-1.043.16,1.63,1.63,0,0,1-1.27-.495,2.4,2.4,0,0,1-.455-1.684v-3.529h-1v-.9h1V107.6Z" transform="translate(-290.539 -106.129)" fill="#DD141D"/>
    <path id="Trazado_5297" data-name="Trazado 5297" d="M329.357,120.626l-.093-.815h-.04a2.409,2.409,0,0,1-1.978.962,1.843,1.843,0,0,1-1.978-1.858c0-1.564,1.39-2.419,3.889-2.406v-.134a1.334,1.334,0,0,0-1.47-1.5,3.222,3.222,0,0,0-1.684.481l-.267-.775a4.013,4.013,0,0,1,2.125-.575c1.978,0,2.459,1.35,2.459,2.646v2.419a9.108,9.108,0,0,0,.107,1.55Zm-.174-3.3c-1.283-.027-2.74.2-2.74,1.457a1.041,1.041,0,0,0,1.11,1.123,1.609,1.609,0,0,0,1.564-1.083,1.221,1.221,0,0,0,.067-.374Z" transform="translate(-304.151 -111.136)" fill="#DD141D"/>
  </g>
  <path id="Trazado_5298" data-name="Trazado 5298" d="M108.731,104.9c-2.341-.066-5.362,6.017-6.164,8.035-.449,1.126.941,1.935,1.39.81.744-1.874,3.285-7.1,4.775-7.093s3.944,5.264,4.67,7.146c.435,1.13,1.835.336,1.4-.794C114.023,110.98,111.068,104.863,108.731,104.9Zm-6.269,4.4c-.007-.071-.019-.139-.03-.207a4.162,4.162,0,0,0-.41-1.205c0-.008-.009-.015-.013-.023-.05-.093-.1-.182-.161-.27-.038-.058-.076-.115-.115-.168-.026-.037-.053-.073-.081-.108q-.084-.11-.166-.205c-.06-.069-.121-.138-.186-.2l-.04-.041c-2.462-2.433-7.826-2.184-9.359-1.538-1.037.435-.679,1.721.457,1.22a10.868,10.868,0,0,1,5.451,0c1.489.373,3.049,1.676,3.049,3.075-.106,3.483-4.715,3.621-6.583,3.168v-4.334a.674.674,0,1,0-1.332-.008v4.357a1.2,1.2,0,0,0,1.048,1.329c1.406.322,7.31.666,8.36-3.529.021-.081.035-.159.051-.238s.029-.142.041-.216a3.653,3.653,0,0,0,.025-.809C102.465,109.335,102.464,109.32,102.462,109.305Zm24.766-3.461a.769.769,0,1,0-1.517-.02v7.617a.765.765,0,1,0,1.518.043Zm-3.8-.44c-.663,1.886-2.934,7.149-4.31,7.163s-3.726-5.2-4.424-7.077c-.42-1.123-1.7-.307-1.283.815.751,2.014,3.575,8.088,5.738,8.013,2.163.033,4.866-6.1,5.579-8.124C125.125,105.063,123.829,104.273,123.429,105.4Z" transform="translate(-91.285 -91.882)" fill="#DD141D"/>
  <path id="Trazado_5299" data-name="Trazado 5299" d="M261.011,62.223c-1.181-.981-3.191-2.453-3.785-2.885a17.486,17.486,0,0,1,.451-2.7c.243-.945.453-1.76,0-2.331A2.007,2.007,0,0,0,256,53.748h-3.135a1.835,1.835,0,0,0-1.539.6,1.569,1.569,0,0,0-.277,1.151c-3.369-1.8-6.285-2.87-7.9-2.88h0c-1.736.01-4.971,1.24-8.654,3.29-.521.291-3.706,2.136-5.249,3.3-.025.018-2.558,1.817-3.959,2.973a9.381,9.381,0,0,0-1.527,1.549l0,0a.369.369,0,0,0-.092.238.384.384,0,0,0,.68.24l0,0s.109-.149.184-.249a9.134,9.134,0,0,1,1.235-1.214c1.38-1.138,3.89-2.922,3.925-2.946,1.518-1.148,4.656-2.966,5.17-3.252,3.574-1.989,6.67-3.182,8.283-3.193,1.611.01,4.707,1.2,8.28,3.193a.383.383,0,0,0,.413-.025.369.369,0,0,0,.142-.382c-.021-.087-.048-.177-.075-.267-.015-.05-.03-.1-.044-.151a1.121,1.121,0,0,1,.065-.932,1.209,1.209,0,0,1,.937-.307H256c.564,0,.937.1,1.081.277.225.284.049.968-.138,1.692a18.225,18.225,0,0,0-.489,3.027.369.369,0,0,0,.153.326c.025.019,2.544,1.839,3.915,2.977,1.666,1.379,2.373,2.666,1.989,3.622-.425,1.061-2.2,1.7-4.406,1.59l-.773-.038-.478-.024a.388.388,0,0,0-.283.105.369.369,0,0,0-.114.276,10.992,10.992,0,0,0,2.435,6.278,5.553,5.553,0,0,1,.745,6.844c-1.629,2.622-5.708,4.729-11.153,3.526a.384.384,0,0,0-.2.01,19.045,19.045,0,0,1-10.269,0,.385.385,0,0,0-.2-.01c-5.448,1.2-9.529-.9-11.157-3.527a5.257,5.257,0,0,1-.592-4.488.442.442,0,0,0,.016-.145.109.109,0,0,0,0-.021.361.361,0,0,0-.3-.313.373.373,0,0,0-.4.169.065.065,0,0,0-.006.01,1.023,1.023,0,0,0-.081.235,6.027,6.027,0,0,0,.713,4.94c1.424,2.293,4.542,4.231,8.736,4.231a14.923,14.923,0,0,0,3.132-.343,19.9,19.9,0,0,0,10.547,0c5.759,1.235,10.1-1.054,11.864-3.886a6.313,6.313,0,0,0-.8-7.691,10.52,10.52,0,0,1-2.25-5.435l.057,0,.775.038c2.572.126,4.594-.681,5.147-2.061C263.579,65.783,263.49,64.275,261.011,62.223Z" transform="translate(-191.27 -52.62)" fill="#DD141D"/>
</svg>
